<?xml version="1.0" standalone="no"?>
<!DOCTYPE svg PUBLIC "-//W3C//DTD SVG 20010904//EN"
 "http://www.w3.org/TR/2001/REC-SVG-20010904/DTD/svg10.dtd">
<svg version="1.0" xmlns="http://www.w3.org/2000/svg"
 width="512.000000pt" height="512.000000pt" viewBox="0 0 512.000000 512.000000"
 preserveAspectRatio="xMidYMid meet">
<metadata>
Created by potrace 1.11, written by Peter Selinger 2001-2013
</metadata>
<g transform="translate(0.000000,512.000000) scale(0.100000,-0.100000)"
fill="#000000" stroke="none">
<path d="M0 4695 l0 -425 534 0 534 0 6 -27 c3 -16 89 -471 192 -1013 102
-542 187 -986 188 -988 2 -1 40 132 85 295 45 164 171 620 279 1013 l198 715
535 3 535 2 279 -1010 c154 -555 282 -1010 285 -1010 3 0 91 453 195 1008
l190 1007 533 3 c292 1 532 0 532 -3 0 -3 -176 -803 -390 -1777 -215 -975
-396 -1794 -401 -1820 l-11 -48 -553 0 -552 0 -50 178 c-27 97 -171 612 -319
1144 -148 532 -272 962 -275 955 -4 -7 -148 -522 -320 -1144 l-314 -1133 -552
0 -553 0 -6 26 c-4 14 -186 830 -405 1813 l-397 1786 -1 -2122 -1 -2123 2560
0 2560 0 0 2560 0 2560 -2560 0 -2560 0 0 -425z"/>
</g>
</svg>
